[Header]
FileType HTR
DataType HTRS
FileVersion 1
NumSegments 64
NumFrames 3
DataFrameRate 24
EulerRotationOrder ZYX
CalibrationUnits mm
RotationUnits Degrees
GlobalAxisofGravity Y
BoneLengthAxis Y
ScaleFactor 1.0
[SegmentNames&Hierarchy]
Hips	GLOBAL
Spine	Hips
Spine1	Spine
Spine2	Spine1
Neck	Spine2
Head	Neck
LeftEye	Head
RightEye	Head
LeftShoulder	Spine2
LeftArm	LeftShoulder
LeftForeArm	LeftArm
LeftHand	LeftForeArm
LeftHandThumb1	LeftHand
LeftHandThumb2	LeftHandThumb1
LeftHandThumb3	LeftHandThumb2
LeftHandThumb4	LeftHandThumb3
LeftHandIndex1	LeftHand
LeftHandIndex2	LeftHandIndex1
LeftHandIndex3	LeftHandIndex2
LeftHandIndex4	LeftHandIndex3
LeftHandMiddle1	LeftHand
LeftHandMiddle2	LeftHandMiddle1
LeftHandMiddle3	LeftHandMiddle2
LeftHandMiddle4	LeftHandMiddle3
LeftHandRing1	LeftHand
LeftHandRing2	LeftHandRing1
LeftHandRing3	LeftHandRing2
LeftHandRing4	LeftHandRing3
LeftHandPinky1	LeftHand
LeftHandPinky2	LeftHandPinky1
LeftHandPinky3	LeftHandPinky2
LeftHandPinky4	LeftHandPinky3
RightShoulder	Spine2
RightArm	RightShoulder
RightForeArm	RightArm
RightHand	RightForeArm
RightHandPinky1	RightHand
RightHandPinky2	RightHandPinky1
RightHandPinky3	RightHandPinky2
RightHandPinky4	RightHandPinky3
RightHandRing1	RightHand
RightHandRing2	RightHandRing1
RightHandRing3	RightHandRing2
RightHandRing4	RightHandRing3
RightHandMiddle1	RightHand
RightHandMiddle2	RightHandMiddle1
RightHandMiddle3	RightHandMiddle2
RightHandMiddle4	RightHandMiddle3
RightHandIndex1	RightHand
RightHandIndex2	RightHandIndex1
RightHandIndex3	RightHandIndex2
RightHandIndex4	RightHandIndex3
RightHandThumb1	RightHand
RightHandThumb2	RightHandThumb1
RightHandThumb3	RightHandThumb2
RightHandThumb4	RightHandThumb3
LeftUpLeg	Hips
LeftLeg	LeftUpLeg
LeftFoot	LeftLeg
LeftToeBase	LeftFoot
RightUpLeg	Hips
RightLeg	RightUpLeg
RightFoot	RightLeg
RightToeBase	RightFoot
[BasePosition]
Hips	0	0	0	0	0	0	1
Spine	0	0	0	0	0	0	1
Spine1	0	0	0	0	0	0	1
Spine2	0	0	0	0	0	0	1
Neck	0	0	0	0	0	0	1
Head	0	0	0	0	0	0	1
LeftEye	0	0	0	0	0	0	1
RightEye	0	0	0	0	0	0	1
LeftShoulder	0	0	0	0	0	0	1
LeftArm	0	0	0	0	0	0	1
LeftForeArm	0	0	0	0	0	0	1
LeftHand	0	0	0	0	0	0	1
LeftHandThumb1	0	0	0	0	0	0	1
LeftHandThumb2	0	0	0	0	0	0	1
LeftHandThumb3	0	0	0	0	0	0	1
LeftHandThumb4	0	0	0	0	0	0	1
LeftHandIndex1	0	0	0	0	0	0	1
LeftHandIndex2	0	0	0	0	0	0	1
LeftHandIndex3	0	0	0	0	0	0	1
LeftHandIndex4	0	0	0	0	0	0	1
LeftHandMiddle1	0	0	0	0	0	0	1
LeftHandMiddle2	0	0	0	0	0	0	1
LeftHandMiddle3	0	0	0	0	0	0	1
LeftHandMiddle4	0	0	0	0	0	0	1
LeftHandRing1	0	0	0	0	0	0	1
LeftHandRing2	0	0	0	0	0	0	1
LeftHandRing3	0	0	0	0	0	0	1
LeftHandRing4	0	0	0	0	0	0	1
LeftHandPinky1	0	0	0	0	0	0	1
LeftHandPinky2	0	0	0	0	0	0	1
LeftHandPinky3	0	0	0	0	0	0	1
LeftHandPinky4	0	0	0	0	0	0	1
RightShoulder	0	0	0	0	0	0	1
RightArm	0	0	0	0	0	0	1
RightForeArm	0	0	0	0	0	0	1
RightHand	0	0	0	0	0	0	1
RightHandPinky1	0	0	0	0	0	0	1
RightHandPinky2	0	0	0	0	0	0	1
RightHandPinky3	0	0	0	0	0	0	1
RightHandPinky4	0	0	0	0	0	0	1
RightHandRing1	0	0	0	0	0	0	1
RightHandRing2	0	0	0	0	0	0	1
RightHandRing3	0	0	0	0	0	0	1
RightHandRing4	0	0	0	0	0	0	1
RightHandMiddle1	0	0	0	0	0	0	1
RightHandMiddle2	0	0	0	0	0	0	1
RightHandMiddle3	0	0	0	0	0	0	1
RightHandMiddle4	0	0	0	0	0	0	1
RightHandIndex1	0	0	0	0	0	0	1
RightHandIndex2	0	0	0	0	0	0	1
RightHandIndex3	0	0	0	0	0	0	1
RightHandIndex4	0	0	0	0	0	0	1
RightHandThumb1	0	0	0	0	0	0	1
RightHandThumb2	0	0	0	0	0	0	1
RightHandThumb3	0	0	0	0	0	0	1
RightHandThumb4	0	0	0	0	0	0	1
LeftUpLeg	0	0	0	0	0	0	1
LeftLeg	0	0	0	0	0	0	1
LeftFoot	0	0	0	0	0	0	1
LeftToeBase	0	0	0	0	0	0	1
RightUpLeg	0	0	0	0	0	0	1
RightLeg	0	0	0	0	0	0	1
RightFoot	0	0	0	0	0	0	1
RightToeBase	0	0	0	0	0	0	1
[Hips]
27	-21.99152946	1018.530518	22.4756794	33.43593597	-80.37780762	-34.71089554	1.0
28	-20.95305443	1017.635498	13.34913731	47.97801971	-82.82427216	-49.09757614	1.0
29	-15.54434395	1016.52002	4.749887466	73.53565979	-84.42445374	-74.50267029	1.0
[Spine]
27	0	101.8159943	1.315000057	1.478081703	-0.2141986042	3.132807016	1.0
28	0	101.8159943	1.315000057	1.358945727	-0.7324900627	3.061123133	1.0
29	0	101.8159943	1.315000057	1.233509064	-1.264070392	2.978806973	1.0
[Spine1]
27	0	100.8349991	-10.00800037	0.9066786766	1.320211768	5.701126099	1.0
28	0	100.8349991	-10.00800037	0.8314962387	0.7535998225	5.82015276	1.0
29	0	100.8349991	-10.00800037	0.7521905899	0.187280938	5.947594166	1.0
[Spine2]
27	0	91	-13.73399925	0.8480218053	1.842276692	5.596626759	1.0
28	0	91	-13.73399925	0.8197652102	1.273511648	5.7254076	1.0
29	0	91	-13.73399925	0.7868216634	0.7048905492	5.861685276	1.0
[Neck]
27	0	166.7169952	-25.16200066	1.83657372	-2.27741766	-2.499752998	1.0
28	0	166.7169952	-25.16200066	1.443220139	-1.27291131	-2.335744143	1.0
29	0	166.7169952	-25.16200066	1.056079268	-0.2649653256	-2.169208765	1.0
[Head]
27	0	96.17900085	16.84999847	2.548172951	-3.725455999	-7.438068867	1.0
28	0	96.17900085	16.84999847	2.037447929	-1.458405495	-7.785730362	1.0
29	0	96.17900085	16.84999847	1.492037654	0.7628930211	-8.123031616	1.0
[LeftEye]
27	30.6760006	64.09500122	92.83599854	0	0	0	1.0
28	30.6760006	64.09500122	92.83599854	0	0	0	1.0
29	30.6760006	64.09500122	92.83599854	0	0	0	1.0
[RightEye]
27	-30.6760006	64.09500122	92.83499908	0	0	0	1.0
28	-30.6760006	64.09500122	92.83499908	0	0	0	1.0
29	-30.6760006	64.09500122	92.83499908	0	0	0	1.0
[LeftShoulder]
27	45.70400238	109.4599991	-26.28000069	4.930064201	-12.88622189	-6.521863937	1.0
28	45.70400238	109.4599991	-26.28000069	4.915883541	-13.12349224	-6.291766644	1.0
29	45.70400238	109.4599991	-26.28000069	4.900878429	-13.35862923	-6.051228046	1.0
[LeftArm]
27	105.923996	-5.24600029	-22.32099915	-2.81319356	3.540955782	-82.89598846	1.0
28	105.923996	-5.24600029	-22.32099915	-2.945455074	3.967765808	-83.2845459	1.0
29	105.923996	-5.24600029	-22.32099915	-3.048741579	4.395017624	-83.67138672	1.0
[LeftForeArm]
27	278.414978	-0.0009999999311	0	-3.302415962e-06	-14.8991518	-0.000202104653	1.0
28	278.414978	-0.0009999999311	0	1.667205834e-05	-14.70272636	-0.0002153974201	1.0
29	278.414978	-0.0009999999311	0	2.246003987e-06	-14.50673962	-0.0002075746306	1.0
[LeftHand]
27	283.2879944	0	0	-27.86961555	-1.887513638	-9.917690277	1.0
28	283.2879944	0	0	-27.83680534	-1.492036939	-9.987113953	1.0
29	283.2879944	0	0	-27.77378464	-1.110154033	-10.05006218	1.0
[LeftHandThumb1]
27	24.6609993	-15.75	26.8239994	17.98575401	-3.991473913	10.24377823	1.0
28	24.6609993	-15.75	26.8239994	18.0358181	-3.949645519	10.22937965	1.0
29	24.6609993	-15.75	26.8239994	18.09017754	-3.880746603	10.23081493	1.0
[LeftHandThumb2]
27	32.29800034	-18.64699936	18.64699936	-0.5104791522	32.85985947	-2.917237282	1.0
28	32.29800034	-18.64699936	18.64699936	-0.4922476709	32.82541656	-2.88955164	1.0
29	32.29800034	-18.64699936	18.64699936	-0.4590418041	32.77690125	-2.855186224	1.0
[LeftHandThumb3]
27	26.52600098	-15.31499958	15.31499958	2.078698158	9.288967133	-0.01138171647	1.0
28	26.52600098	-15.31499958	15.31499958	2.082894802	9.302067757	-0.01485929824	1.0
29	26.52600098	-15.31499958	15.31499958	2.087848902	9.317597389	-0.01896148361	1.0
[LeftHandThumb4]
27	19.54599953	-11.28499985	11.28499985	0	0	0	1.0
28	19.54599953	-11.28499985	11.28499985	0	0	0	1.0
29	19.54599953	-11.28499985	11.28499985	0	0	0	1.0
[LeftHandIndex1]
27	91.09299469	-5.170999527	22.60099792	-0.3187388778	4.65780735	-7.962238789	1.0
28	91.09299469	-5.170999527	22.60099792	-0.3117720187	4.663489342	-7.916396618	1.0
29	91.09299469	-5.170999527	22.60099792	-0.3012937307	4.670441151	-7.844817638	1.0
[LeftHandIndex2]
27	36.76399994	0	0	-0.6287389994	2.771416426	-20.58374786	1.0
28	36.76399994	0	0	-0.6284788251	2.770872116	-20.57783127	1.0
29	36.76399994	0	0	-0.6282371283	2.770463705	-20.57314301	1.0
[LeftHandIndex3]
27	28.83100128	0	0	-0.1099355668	0.8065937757	-10.18129063	1.0
28	28.83100128	0	0	-0.109824568	0.8060085773	-10.17539883	1.0
29	28.83100128	0	0	-0.1097405776	0.8055461049	-10.17070007	1.0
[LeftHandIndex4]
27	23.92700005	0	0	0	0	0	1.0
28	23.92700005	0	0	0	0	0	1.0
29	23.92700005	0	0	0	0	0	1.0
[LeftHandMiddle1]
27	95.33399963	0	0	-1.537981272	8.67877388	-16.01659966	1.0
28	95.33399963	0	0	-1.531412244	8.678224564	-15.96181583	1.0
29	95.33399963	0	0	-1.521750808	8.677741051	-15.88116646	1.0
[LeftHandMiddle2]
27	36.98199844	0	0	-1.426659703	3.823156595	-33.41454697	1.0
28	36.98199844	0	0	-1.426757455	3.823269367	-33.41590881	1.0
29	36.98199844	0	0	-1.426891446	3.823410988	-33.41778946	1.0
[LeftHandMiddle3]
27	29.50900078	0	0	-0.148945719	1.48532629	-12.26131821	1.0
28	29.50900078	0	0	-0.1489728838	1.485455751	-12.26277542	1.0
29	29.50900078	0	0	-0.1490256637	1.485650659	-12.26480579	1.0
[LeftHandMiddle4]
27	28.3390007	0	0	0	0	0	1.0
28	28.3390007	0	0	0	0	0	1.0
29	28.3390007	0	0	0	0	0	1.0
[LeftHandRing1]
27	91.04499817	-0.4390000105	-18.65100098	-3.03277421	11.5290308	-27.03897285	1.0
28	91.04499817	-0.4390000105	-18.65100098	-3.029232502	11.53822327	-27.00842857	1.0
29	91.04499817	-0.4390000105	-18.65100098	-3.023372173	11.54988384	-26.95897865	1.0
[LeftHandRing2]
27	31.54000092	0	0	-1.196347833	4.054064751	-40.18296432	1.0
28	31.54000092	0	0	-1.196810961	4.054653168	-40.19042206	1.0
29	31.54000092	0	0	-1.197479725	4.055529594	-40.20161438	1.0
[LeftHandRing3]
27	29.37700081	0	0	-0.0917801559	1.901502967	-19.31841469	1.0
28	29.37700081	0	0	-0.09195958078	1.902253032	-19.32619858	1.0
29	29.37700081	0	0	-0.09223821014	1.903372407	-19.33780479	1.0
[LeftHandRing4]
27	26.47500038	0	0	0	0	0	1.0
28	26.47500038	0	0	0	0	0	1.0
29	26.47500038	0	0	0	0	0	1.0
[LeftHandPinky1]
27	80.77799988	-4.887000084	-38.06099701	-5.230444431	16.07125854	-36.99386215	1.0
28	80.77799988	-4.887000084	-38.06099701	-5.227633476	16.09444809	-36.96054459	1.0
29	80.77799988	-4.887000084	-38.06099701	-5.222191811	16.12825584	-36.90261841	1.0
[LeftHandPinky2]
27	36	0	0	-1.9459517	3.817820072	-45.66791916	1.0
28	36	0	0	-1.945584297	3.817489386	-45.6629982	1.0
29	36	0	0	-1.945598602	3.817492723	-45.66317368	1.0
[LeftHandPinky3]
27	21.14200211	0	0	-0.5435531735	2.834188938	-20.53207779	1.0
28	21.14200211	0	0	-0.5433449745	2.83374238	-20.52715111	1.0
29	21.14200211	0	0	-0.5433529019	2.833769083	-20.52733231	1.0
[LeftHandPinky4]
27	19.75699997	0	0	0	0	0	1.0
28	19.75699997	0	0	0	0	0	1.0
29	19.75699997	0	0	0	0	0	1.0
[RightShoulder]
27	-45.70000076	109.4620056	-26.28000069	4.621911049	3.299062729	4.968811989	1.0
28	-45.70000076	109.4620056	-26.28000069	4.712296963	3.094582558	5.331271648	1.0
29	-45.70000076	109.4620056	-26.28000069	4.810462475	2.868932724	5.722985744	1.0
[RightArm]
27	-105.9280014	-5.248000145	-22.32099915	1.265333891	2.089573383	68.002388	1.0
28	-105.9280014	-5.248000145	-22.32099915	0.713839829	1.733765721	67.69510651	1.0
29	-105.9280014	-5.248000145	-22.32099915	0.1354280859	1.378136516	67.34007263	1.0
[RightForeArm]
27	-278.414978	0	0	2.107547772e-07	18.30114746	7.742944035e-06	1.0
28	-278.414978	0	0	-1.466021786e-05	18.0759716	-5.205261459e-06	1.0
29	-278.414978	0	0	-1.262233695e-06	17.73660851	-1.116749809e-05	1.0
[RightHand]
27	-283.2879944	0	0.0009999999311	-13.92899895	-9.145136833	10.9178381	1.0
28	-283.2879944	0	0.0009999999311	-13.30223465	-7.984623909	11.36625767	1.0
29	-283.2879944	0	0.0009999999311	-12.68407536	-6.830760002	11.79689121	1.0
[RightHandPinky1]
27	-80.76699829	-4.885000229	-38.06000137	-5.073379517	-15.97654724	35.94409943	1.0
28	-80.76699829	-4.885000229	-38.06000137	-5.143484116	-16.04685402	36.39919662	1.0
29	-80.76699829	-4.885000229	-38.06000137	-5.222115517	-16.12935448	36.90296173	1.0
[RightHandPinky2]
27	-36	0	0.0009999999311	-1.957957029	-3.827809095	45.84589767	1.0
28	-36	0	0.0009999999311	-1.951303959	-3.822013617	45.75727081	1.0
29	-36	0	0.0009999999311	-1.944223523	-3.815806389	45.66314316	1.0
[RightHandPinky3]
27	-21.14200211	0	0	-0.7737509012	0.03855504096	22.30584717	1.0
28	-21.14200211	0	0	-0.7697086334	0.0464297682	22.2176609	1.0
29	-21.14200211	0	0	-0.7654366493	0.05476152152	22.12397766	1.0
[RightHandPinky4]
27	-19.75699997	0	0	0	0	0	1.0
28	-19.75699997	0	0	0	0	0	1.0
29	-19.75699997	0	0	0	0	0	1.0
[RightHandRing1]
27	-91.03599548	-0.4390000105	-18.65100098	-2.89354682	-11.54357052	25.96030426	1.0
28	-91.03599548	-0.4390000105	-18.65100098	-2.954692364	-11.54736614	26.43151855	1.0
29	-91.03599548	-0.4390000105	-18.65100098	-3.023309469	-11.54952908	26.95914268	1.0
[RightHandRing2]
27	-31.54000092	0	0	-1.200474501	-4.059047699	40.2536087	1.0
28	-31.54000092	0	0	-1.198893547	-4.05700779	40.22767258	1.0
29	-31.54000092	0	0	-1.197295427	-4.054999828	40.20164871	1.0
[RightHandRing3]
27	-29.37700081	0	0	-0.1394293904	0.08487597853	17.86839676	1.0
28	-29.37700081	0	0	-0.1388718188	0.0874555409	17.84187508	1.0
29	-29.37700081	0	0	-0.1383129358	0.09005966783	17.81516075	1.0
[RightHandRing4]
27	-26.47500038	0	0	0	0	0	1.0
28	-26.47500038	0	0	0	0	0	1.0
29	-26.47500038	0	0	0	0	0	1.0
[RightHandMiddle1]
27	-95.32500458	0	0	-1.380488753	-8.478604317	14.70991707	1.0
28	-95.32500458	0	0	-1.447002292	-8.574144363	15.26351452	1.0
29	-95.32500458	0	0	-1.521724701	-8.677538872	15.88130093	1.0
[RightHandMiddle2]
27	-36.98199844	0	0	-1.425370216	-3.821454287	33.39756393	1.0
28	-36.98199844	0	0	-1.426048398	-3.822190285	33.40737152	1.0
29	-36.98199844	0	0	-1.426771164	-3.822947741	33.41783524	1.0
[RightHandMiddle3]
27	-29.50900078	0	0	-0.2528316081	-1.676169395	15.87767506	1.0
28	-29.50900078	0	0	-0.2531314492	-1.677184463	15.88816547	1.0
29	-29.50900078	0	0	-0.2534612715	-1.678240657	15.89936924	1.0
[RightHandMiddle4]
27	-28.3390007	0	0.0009999999311	0	0	0	1.0
28	-28.3390007	0	0.0009999999311	0	0	0	1.0
29	-28.3390007	0	0.0009999999311	0	0	0	1.0
[RightHandIndex1]
27	-91.08300018	-5.167999744	22.60099792	-0.159335956	-4.450315952	6.160374165	1.0
28	-91.08300018	-5.167999744	22.60099792	-0.2257336527	-4.554700851	6.955072403	1.0
29	-91.08300018	-5.167999744	22.60099792	-0.3013067245	-4.670331955	7.844900131	1.0
[RightHandIndex2]
27	-36.76399994	0	0	-0.6330426335	-2.779100895	20.67313957	1.0
28	-36.76399994	0	0	-0.6306642294	-2.77473402	20.62413406	1.0
29	-36.76399994	0	0	-0.6281895638	-2.770173311	20.57315826	1.0
[RightHandIndex3]
27	-28.83100128	0	0	-0.2409141958	-0.1672026217	13.94448853	1.0
28	-28.83100128	0	0	-0.2397326678	-0.1624313444	13.89557266	1.0
29	-28.83100128	0	0	-0.2385100573	-0.1574651599	13.84473228	1.0
[RightHandIndex4]
27	-23.92700005	0	0	0	0	0	1.0
28	-23.92700005	0	0	0	0	0	1.0
29	-23.92700005	0	0	0	0	0	1.0
[RightHandThumb1]
27	-24.64799881	-15.72700024	26.82600021	18.72165489	2.539074659	-10.17967892	1.0
28	-24.64799881	-15.72700024	26.82600021	18.39670753	3.188182354	-10.20951366	1.0
29	-24.64799881	-15.72700024	26.82600021	18.08984947	3.880945206	-10.23104382	1.0
[RightHandThumb2]
27	-32.29800034	-18.64699936	18.64699936	-0.4213861823	-32.02113342	2.865093231	1.0
28	-32.29800034	-18.64699936	18.64699936	-0.4405108094	-32.38827896	2.863292933	1.0
29	-32.29800034	-18.64699936	18.64699936	-0.4598254859	-32.77558517	2.856990337	1.0
[RightHandThumb3]
27	-26.52600098	-15.31399918	15.31399918	1.862336755	-8.251075745	0.7965928316	1.0
28	-26.52600098	-15.31399918	15.31399918	1.863909364	-8.351202965	0.7967889905	1.0
29	-26.52600098	-15.31399918	15.31399918	1.866271019	-8.463834763	0.8300198913	1.0
[RightHandThumb4]
27	-19.54599953	-11.28499985	11.28499985	0	0	0	1.0
28	-19.54599953	-11.28499985	11.28499985	0	0	0	1.0
29	-19.54599953	-11.28499985	11.28499985	0	0	0	1.0
[LeftUpLeg]
27	82.07800293	-67.51699829	-15.99599934	-17.78404427	15.16424847	10.79934788	1.0
28	82.07800293	-67.51699829	-15.99599934	-17.06601143	14.84800053	11.12143707	1.0
29	82.07800293	-67.51699829	-15.99599934	-16.46935844	15.18134785	11.84138298	1.0
[LeftLeg]
27	0	-443.7049866	2.845999956	27.87911987	3.421946526	6.517740726	1.0
28	0	-443.7049866	2.845999956	24.65242767	5.680099487	6.191196442	1.0
29	0	-443.7049866	2.845999956	22.6687088	7.900528431	5.783350468	1.0
[LeftFoot]
27	0	-444.2789917	-29.8219986	-0.9227777719	6.043358803	-10.59757233	1.0
28	0	-444.2789917	-29.8219986	-1.891176224	3.882026911	-9.406101227	1.0
29	0	-444.2789917	-29.8219986	-2.00292635	3.082120895	-8.876128197	1.0
[LeftToeBase]
27	0	-87.28699493	107.1060028	-5.923016548	-0.002238834277	-0.02439997904	1.0
28	0	-87.28699493	107.1060028	-2.137929678	7.842307241e-06	-4.613800229e-06	1.0
29	0	-87.28699493	107.1060028	-0.441963315	-5.522105312e-06	-1.147883495e-07	1.0
[RightUpLeg]
27	-82.07800293	-67.51699829	-15.99599934	-1.439149022	-5.431857109	10.43528271	1.0
28	-82.07800293	-67.51699829	-15.99599934	-1.729046345	-5.00329113	10.61771011	1.0
29	-82.07800293	-67.51699829	-15.99599934	-2.483002424	-4.584841728	10.71707344	1.0
[RightLeg]
27	0	-443.7049866	2.861999989	10.80587196	-6.529154778	1.507847428	1.0
28	0	-443.7049866	2.861999989	11.25612259	-6.292350769	1.715747833	1.0
29	0	-443.7049866	2.861999989	12.17164135	-5.664191723	2.109326363	1.0
[RightFoot]
27	0	-444.2770081	-29.83799934	-9.667525291	-4.723101139	-6.003770351	1.0
28	0	-444.2770081	-29.83799934	-9.793054581	-2.314386845	-6.874807358	1.0
29	0	-444.2770081	-29.83799934	-9.877534866	-0.3347029984	-7.81914854	1.0
[RightToeBase]
27	0	-87.28699493	107.1060028	-0.5933764577	8.942969316e-07	2.420943474e-06	1.0
28	0	-87.28699493	107.1060028	-0.5834665298	2.93854805e-06	2.405453188e-07	1.0
29	0	-87.28699493	107.1060028	-0.548655808	-1.269637414e-05	-9.379122048e-07	1.0
[EndOfFile]
